# xmcd
#
# Track frame offsets: 
#        150
#        16254
#        30351
#        44274
#        59627
#        68723
#        81745
#        102061
#        114060
#        129672
#        138967
#        151373
#        168387
#
# Disc length: 2372 seconds
#
# Revision: 0
# Processed by: cddbd v1.5.2PL0 Copyright (c) Steve Scherf et al.
# Submitted via: ExactAudioCopy v1.0b1
#
DISCID=a409420d
DTITLE=The Sweetback Sisters - Chicken Ain't Chicken
DYEAR=2009
DGENRE=Country
TTITLE0=I Want To Be A Real Cowboy Girl
TTITLE1=They Say Virginia Is For Lovers
TTITLE2=My Uncle Used To Love Me But She Died
TTITLE3=It Don't Show On Me
TTITLE4=Cannonball
TTITLE5=Don't Cry To Me
TTITLE6=Feeling Bad
TTITLE7=Deputy Blues No. 2
TTITLE8=Red Shoes Blues
TTITLE9=You Done Me Wrong
TTITLE10=Have You Seen My Chicken?
TTITLE11=The Sweetest Gift, A Mother's Smile
TTITLE12=You're Gone (Again)
EXTD=
EXTT0=
EXTT1=
EXTT2=
EXTT3=
EXTT4=
EXTT5=
EXTT6=
EXTT7=
EXTT8=
EXTT9=
EXTT10=
EXTT11=
EXTT12=
PLAYORDER=
